<mxfile host="app.diagrams.net" modified="2022-03-10T14:55:54.668Z" agent="5.0 (Windows NT 10.0; Win64; x64) AppleWebKit/537.36 (KHTML, like Gecko) Chrome/99.0.4844.51 Safari/537.36 Edg/99.0.1150.36" etag="RpDsDgJ3QOlPHAFPJ1ys" version="15.7.3" type="github">
  <diagram name="Page-1" id="c9db0220-8083-56f3-ca83-edcdcd058819">
    <mxGraphModel dx="1367" dy="803" grid="1" gridSize="10" guides="1" tooltips="1" connect="1" arrows="1" fold="1" page="1" pageScale="1.5" pageWidth="826" pageHeight="1169" background="#ffffff" math="0" shadow="0">
      <root>
        <mxCell id="0" style=";html=1;" />
        <mxCell id="1" style=";html=1;" parent="0" />
        <mxCell id="3d76a8aef4d5c911-1" value="" style="html=1;shadow=0;dashed=0;shape=mxgraph.bootstrap.rect;fillColor=#222222;strokeColor=none;whiteSpace=wrap;rounded=0;fontSize=12;fontColor=#000000;align=center;" parent="1" vertex="1">
          <mxGeometry x="40" y="70" width="1150" height="40" as="geometry" />
        </mxCell>
        <mxCell id="3d76a8aef4d5c911-2" value="Home" style="html=1;shadow=0;dashed=0;fillColor=none;strokeColor=none;shape=mxgraph.bootstrap.rect;fontColor=#999999;fontSize=14;whiteSpace=wrap;" parent="3d76a8aef4d5c911-1" vertex="1">
          <mxGeometry width="115" height="40" as="geometry" />
        </mxCell>
        <mxCell id="3d76a8aef4d5c911-3" value="Contact" style="html=1;shadow=0;dashed=0;shape=mxgraph.bootstrap.rect;fillColor=#000000;strokeColor=none;fontColor=#ffffff;spacingRight=30;whiteSpace=wrap;" parent="3d76a8aef4d5c911-1" vertex="1">
          <mxGeometry x="115" width="129.375" height="40" as="geometry" />
        </mxCell>
        <mxCell id="3d76a8aef4d5c911-7" value="Abouts Us" style="html=1;shadow=0;dashed=0;fillColor=none;strokeColor=none;shape=mxgraph.bootstrap.rect;fontColor=#999999;whiteSpace=wrap;" parent="3d76a8aef4d5c911-1" vertex="1">
          <mxGeometry x="402.5" width="115" height="40" as="geometry" />
        </mxCell>
        <mxCell id="3d76a8aef4d5c911-9" value="/" style="html=1;shadow=0;dashed=0;fillColor=none;strokeColor=none;shape=mxgraph.bootstrap.rect;fontColor=#999999;whiteSpace=wrap;" parent="3d76a8aef4d5c911-1" vertex="1">
          <mxGeometry x="948.75" width="100.625" height="40" as="geometry" />
        </mxCell>
        <mxCell id="3d76a8aef4d5c911-5" value="News" style="html=1;shadow=0;dashed=0;fillColor=none;strokeColor=none;shape=mxgraph.bootstrap.rect;fontColor=#999999;spacingRight=30;whiteSpace=wrap;" parent="3d76a8aef4d5c911-1" vertex="1">
          <mxGeometry x="246.87" width="123.13" height="40" as="geometry" />
        </mxCell>
        <mxCell id="3d76a8aef4d5c911-6" value="42" style="html=1;shadow=0;dashed=0;shape=mxgraph.bootstrap.rrect;rSize=8;fillColor=#ff0000;strokeColor=none;fontColor=#ffffff;whiteSpace=wrap;" parent="3d76a8aef4d5c911-5" vertex="1">
          <mxGeometry x="1" y="0.5" width="25" height="16" relative="1" as="geometry">
            <mxPoint x="-30" y="-8" as="offset" />
          </mxGeometry>
        </mxCell>
        <mxCell id="3d76a8aef4d5c911-22" value="" style="shape=triangle;strokeColor=none;fillColor=#000000;direction=south;rounded=0;shadow=1;fontSize=12;fontColor=#000000;align=center;html=1;" parent="1" vertex="1">
          <mxGeometry x="1030" y="38" width="8" height="4" as="geometry" />
        </mxCell>
        <mxCell id="3d76a8aef4d5c911-26" value="" style="shape=triangle;strokeColor=none;fillColor=#FFFFFF;direction=south;rounded=0;shadow=1;fontSize=12;fontColor=#000000;align=center;html=1;" parent="1" vertex="1">
          <mxGeometry x="1150" y="42" width="8" height="4" as="geometry" />
        </mxCell>
        <mxCell id="3d76a8aef4d5c911-28" value="Message Type" style="html=1;shadow=0;dashed=0;shape=mxgraph.bootstrap.rect;strokeColor=none;fillColor=none;fontColor=#999999;align=left;spacingLeft=5;whiteSpace=wrap;rounded=0;" parent="1" vertex="1">
          <mxGeometry x="40" y="570" width="200" height="20" as="geometry" />
        </mxCell>
        <mxCell id="3d76a8aef4d5c911-29" value="Email + Push" style="html=1;shadow=0;dashed=0;shape=mxgraph.bootstrap.rrect;rSize=5;strokeColor=#dddddd;align=left;spacingLeft=10;fontSize=16;whiteSpace=wrap;rounded=0;" parent="1" vertex="1">
          <mxGeometry x="40" y="590" width="390" height="40" as="geometry" />
        </mxCell>
        <mxCell id="3d76a8aef4d5c911-30" value="" style="shape=triangle;strokeColor=none;fillColor=#000000;direction=south;rounded=0;shadow=1;fontSize=12;fontColor=#000000;align=center;html=1;" parent="1" vertex="1">
          <mxGeometry x="410" y="607" width="10" height="5" as="geometry" />
        </mxCell>
        <mxCell id="3d76a8aef4d5c911-31" value="Tap target" style="html=1;shadow=0;dashed=0;shape=mxgraph.bootstrap.rect;strokeColor=none;fillColor=none;fontColor=#999999;align=left;spacingLeft=5;whiteSpace=wrap;rounded=0;" parent="1" vertex="1">
          <mxGeometry x="450" y="570" width="200" height="20" as="geometry" />
        </mxCell>
        <mxCell id="3d76a8aef4d5c911-32" value="Profile Screen" style="html=1;shadow=0;dashed=0;shape=mxgraph.bootstrap.rrect;rSize=5;strokeColor=#dddddd;align=left;spacingLeft=10;fontSize=16;whiteSpace=wrap;rounded=0;" parent="1" vertex="1">
          <mxGeometry x="450" y="590" width="390" height="40" as="geometry" />
        </mxCell>
        <mxCell id="3d76a8aef4d5c911-33" value="" style="shape=triangle;strokeColor=none;fillColor=#000000;direction=south;rounded=0;shadow=1;fontSize=12;fontColor=#000000;align=center;html=1;" parent="1" vertex="1">
          <mxGeometry x="820" y="607" width="10" height="5" as="geometry" />
        </mxCell>
        <mxCell id="3d76a8aef4d5c911-34" value="Send to Group" style="html=1;shadow=0;dashed=0;shape=mxgraph.bootstrap.rect;strokeColor=none;fillColor=none;fontColor=#999999;align=left;spacingLeft=5;whiteSpace=wrap;rounded=0;" parent="1" vertex="1">
          <mxGeometry x="40" y="650" width="200" height="20" as="geometry" />
        </mxCell>
        <mxCell id="3d76a8aef4d5c911-35" value="Top Management" style="html=1;shadow=0;dashed=0;shape=mxgraph.bootstrap.checkbox;fontSize=12;strokeColor=#999999;align=left;labelPosition=right;spacingLeft=5;rounded=0;" parent="1" vertex="1">
          <mxGeometry x="50" y="673" width="14" height="14" as="geometry" />
        </mxCell>
        <mxCell id="3d76a8aef4d5c911-36" value="Marketing Department" style="html=1;shadow=0;dashed=0;shape=mxgraph.bootstrap.rrect;fontSize=12;rSize=3;strokeColor=#999999;align=left;labelPosition=right;spacingLeft=5;rounded=0;" parent="1" vertex="1">
          <mxGeometry x="50" y="693" width="14" height="14" as="geometry" />
        </mxCell>
        <mxCell id="3d76a8aef4d5c911-37" value="Design Department" style="html=1;shadow=0;dashed=0;shape=mxgraph.bootstrap.checkbox;fontSize=12;strokeColor=#999999;align=left;labelPosition=right;spacingLeft=5;rounded=0;" parent="1" vertex="1">
          <mxGeometry x="50" y="713" width="14" height="14" as="geometry" />
        </mxCell>
        <mxCell id="3d76a8aef4d5c911-38" value="Financial Department" style="html=1;shadow=0;dashed=0;shape=mxgraph.bootstrap.rrect;fontSize=12;rSize=3;strokeColor=#999999;align=left;labelPosition=right;spacingLeft=5;rounded=0;" parent="1" vertex="1">
          <mxGeometry x="50" y="733" width="14" height="14" as="geometry" />
        </mxCell>
        <mxCell id="3d76a8aef4d5c911-39" value="Supply Department" style="html=1;shadow=0;dashed=0;shape=mxgraph.bootstrap.rrect;fontSize=12;rSize=3;strokeColor=#999999;align=left;labelPosition=right;spacingLeft=5;rounded=0;" parent="1" vertex="1">
          <mxGeometry x="50" y="753" width="14" height="14" as="geometry" />
        </mxCell>
        <mxCell id="3d76a8aef4d5c911-40" value="Set Type" style="html=1;shadow=0;dashed=0;shape=mxgraph.bootstrap.rect;strokeColor=none;fillColor=none;fontColor=#999999;align=left;spacingLeft=5;whiteSpace=wrap;rounded=0;" parent="1" vertex="1">
          <mxGeometry x="450" y="650" width="200" height="20" as="geometry" />
        </mxCell>
        <mxCell id="3d76a8aef4d5c911-41" value="" style="shape=ellipse;dashed=0;strokeColor=#999999;fillColor=#ffffff;html=1;rounded=0;shadow=1;fontSize=12;fontColor=#000000;align=center;" parent="1" vertex="1">
          <mxGeometry x="460" y="673" width="14" height="14" as="geometry" />
        </mxCell>
        <mxCell id="3d76a8aef4d5c911-42" value="News" style="html=1;shadow=0;dashed=0;shape=mxgraph.bootstrap.rrect;align=center;rSize=3;strokeColor=none;fillColor=#58B957;fontColor=#ffffff;fontStyle=1;fontSize=10;whiteSpace=wrap;rounded=0;" parent="1" vertex="1">
          <mxGeometry x="480" y="673" width="40" height="14" as="geometry" />
        </mxCell>
        <mxCell id="3d76a8aef4d5c911-43" value="" style="html=1;shadow=0;dashed=0;shape=mxgraph.bootstrap.radioButton;strokeColor=#999999;fillColor=#ffffff;rounded=0;fontSize=12;fontColor=#000000;align=center;" parent="1" vertex="1">
          <mxGeometry x="460" y="693" width="14" height="14" as="geometry" />
        </mxCell>
        <mxCell id="3d76a8aef4d5c911-44" value="Reports" style="html=1;shadow=0;dashed=0;shape=mxgraph.bootstrap.rrect;align=center;rSize=3;strokeColor=none;fillColor=#55BFE0;fontColor=#ffffff;fontStyle=1;fontSize=10;whiteSpace=wrap;rounded=0;" parent="1" vertex="1">
          <mxGeometry x="480" y="693" width="50" height="14" as="geometry" />
        </mxCell>
        <mxCell id="3d76a8aef4d5c911-45" value="" style="shape=ellipse;dashed=0;strokeColor=#999999;fillColor=#ffffff;html=1;rounded=0;shadow=1;fontSize=12;fontColor=#000000;align=center;" parent="1" vertex="1">
          <mxGeometry x="460" y="713" width="14" height="14" as="geometry" />
        </mxCell>
        <mxCell id="3d76a8aef4d5c911-46" value="Documents" style="html=1;shadow=0;dashed=0;shape=mxgraph.bootstrap.rrect;align=center;rSize=3;strokeColor=none;fillColor=#EFAC43;fontColor=#ffffff;fontStyle=1;fontSize=10;whiteSpace=wrap;rounded=0;" parent="1" vertex="1">
          <mxGeometry x="480" y="713" width="70" height="14" as="geometry" />
        </mxCell>
        <mxCell id="3d76a8aef4d5c911-47" value="" style="shape=ellipse;dashed=0;strokeColor=#999999;fillColor=#ffffff;html=1;rounded=0;shadow=1;fontSize=12;fontColor=#000000;align=center;" parent="1" vertex="1">
          <mxGeometry x="460" y="733" width="14" height="14" as="geometry" />
        </mxCell>
        <mxCell id="3d76a8aef4d5c911-48" value="Media" style="html=1;shadow=0;dashed=0;shape=mxgraph.bootstrap.rrect;align=center;rSize=3;strokeColor=none;fillColor=#3D8BCD;fontColor=#ffffff;fontStyle=1;fontSize=10;whiteSpace=wrap;rounded=0;" parent="1" vertex="1">
          <mxGeometry x="480" y="733" width="40" height="14" as="geometry" />
        </mxCell>
        <mxCell id="3d76a8aef4d5c911-49" value="" style="shape=ellipse;dashed=0;strokeColor=#999999;fillColor=#ffffff;html=1;rounded=0;shadow=1;fontSize=12;fontColor=#000000;align=center;" parent="1" vertex="1">
          <mxGeometry x="460" y="753" width="14" height="14" as="geometry" />
        </mxCell>
        <mxCell id="3d76a8aef4d5c911-50" value="Text" style="html=1;shadow=0;dashed=0;shape=mxgraph.bootstrap.rrect;align=center;rSize=3;strokeColor=none;fillColor=#999999;fontColor=#ffffff;fontStyle=1;fontSize=10;whiteSpace=wrap;rounded=0;" parent="1" vertex="1">
          <mxGeometry x="480" y="753" width="30" height="14" as="geometry" />
        </mxCell>
        <mxCell id="3d76a8aef4d5c911-51" value="Save Template" style="html=1;shadow=0;dashed=0;shape=mxgraph.bootstrap.rrect;align=center;rSize=5;strokeColor=none;fillColor=#3D8BCD;fontColor=#ffffff;fontSize=16;whiteSpace=wrap;rounded=0;" parent="1" vertex="1">
          <mxGeometry x="40" y="810" width="150" height="40" as="geometry" />
        </mxCell>
        <mxCell id="3d76a8aef4d5c911-52" value="Cancel" style="html=1;shadow=0;dashed=0;shape=mxgraph.bootstrap.rrect;align=center;rSize=5;strokeColor=#dddddd;fontSize=16;whiteSpace=wrap;rounded=0;" parent="1" vertex="1">
          <mxGeometry x="210" y="810" width="100" height="40" as="geometry" />
        </mxCell>
        <mxCell id="3d76a8aef4d5c911-53" value="Delete Template" style="html=1;shadow=0;dashed=0;shape=mxgraph.bootstrap.rrect;align=center;rSize=5;strokeColor=none;fillColor=#DB524C;fontColor=#ffffff;fontSize=16;whiteSpace=wrap;rounded=0;" parent="1" vertex="1">
          <mxGeometry x="670" y="810" width="170" height="40" as="geometry" />
        </mxCell>
        <mxCell id="_LlhXOMRM4K-xf-TNF9e-1" value="" style="rounded=0;whiteSpace=wrap;html=1;fontStyle=1" vertex="1" parent="1">
          <mxGeometry x="40" y="10" width="1150" height="60" as="geometry" />
        </mxCell>
        <mxCell id="_LlhXOMRM4K-xf-TNF9e-3" value="&lt;font color=&quot;#ffffff&quot; size=&quot;1&quot;&gt;&lt;b style=&quot;font-size: 13px&quot;&gt;Account&lt;/b&gt;&lt;/font&gt;" style="rounded=1;html=1;shadow=0;dashed=0;whiteSpace=wrap;fontSize=10;fillColor=#333333;align=center;strokeColor=#4D4D4D;fontColor=#666666;" vertex="1" parent="1">
          <mxGeometry x="1060" y="25.779999999999998" width="105.5" height="28.44" as="geometry" />
        </mxCell>
        <mxCell id="_LlhXOMRM4K-xf-TNF9e-4" value="&lt;font color=&quot;#ffffff&quot; size=&quot;1&quot;&gt;&lt;b style=&quot;font-size: 13px&quot;&gt;Lang&amp;nbsp;&lt;/b&gt;&lt;/font&gt;" style="rounded=1;html=1;shadow=0;dashed=0;whiteSpace=wrap;fontSize=10;fillColor=#333333;align=center;strokeColor=#4D4D4D;fontColor=#666666;" vertex="1" parent="1">
          <mxGeometry x="940" y="25.78" width="105.5" height="28.44" as="geometry" />
        </mxCell>
        <mxCell id="_LlhXOMRM4K-xf-TNF9e-5" value="" style="dashed=0;outlineConnect=0;html=1;align=center;labelPosition=center;verticalLabelPosition=bottom;verticalAlign=top;shape=mxgraph.weblogos.amazon;fontSize=13;fontColor=#FFFFFF;" vertex="1" parent="1">
          <mxGeometry x="60" y="15.9" width="62.8" height="48.2" as="geometry" />
        </mxCell>
        <mxCell id="_LlhXOMRM4K-xf-TNF9e-8" value="" style="shape=image;verticalLabelPosition=bottom;labelBackgroundColor=#ffffff;verticalAlign=top;aspect=fixed;imageAspect=0;image=data:image/jpeg,/9j/4AAQSkZJRgABAQAAAQABAAD/2wBDAAsJCQcJCQcJCQkJCwkJCQkJCQsJCwsMCwsLDA0QDBEODQ4MEhkSJRodJR0ZHxwpKRYlNzU2GioyPi0pMBk7IRP/2wBDAQcICAsJCxULCxUsHRkdLCwsLCwsLCwsLCwsLCwsLCwsLCwsLCwsLCwsLCwsLCwsLCwsLCwsLCwsLCwsLCwsLCz/wAARCAC0ARUDASIAAhEBAxEB/8QAGwAAAQUBAQAAAAAAAAAAAAAAAAEDBAUGAgf/xABDEAACAQMCBAQCBggFAwMFAAABAgMABBEFIRIxQVEGE2FxIoEUIzJCobEVM1JigpHB0QckcpLwFuHxNEODRFNzk6L/xAAaAQADAQEBAQAAAAAAAAAAAAAAAQIDBAUG/8QAKREAAgIBBAAFBQADAAAAAAAAAAECEQMEEiExBRMUIlEjMkFhcRWhsf/aAAwDAQACEQMRAD8A0rzYkwc9aIpMRyyOwREySWOAAOtUhlmuXklknMUUQ4jwjAIXuTVDfard3wMKEx2ik8KKTmXH3nqo2J0+y41DxTL9ZDp+4BwZ2AI9eBSKz0l7eSMzs5Lu2XY4yxpoKQB2xip6adIi6ZdPgxz3IUJ3AOcmtvMlVWZrHG7o1Gg25tkjeUks+HYnuRWkDI+6sazt3f2tlEJZzwLjAC82OOQFQbTWvEl6eKx0oCDPwyXDlOIen/isKvk1Rr24889q7jZgxUkkEZFUsE3iPObm3tEXbIWVi347VaxOX8skANtkDpW2HhnPqFcSWc0u/eiiu88sBnvXQz3pBS1I0Lk9zS70gBOfQEk9AO5NRze2fmLCsoeQ7YjBKj3bl+NRKUYq2zfHjlkdQVknJ70uTRwsADjY8jRQmmrQpRcXTXIuaXfvXNdUgFye9Jk9zRRQMXJ7ml371zS1IC5PejJ70hpRRQxcnvS5NJRUjOsmjJpM0tIAye9GT3oooGG/elyaSloKoMmlyaSikMXJopKKAPGdR1GS9P0aA8FnGcyMNjK3PHtURAMZI2GwpuFeJRsVjH40/wA8Z2A5VlR2DsMLXMkUSg5ZgNugJrSawYbabRYdhFZW8l1NnYcgij51G0G1PnLIwzjl6e1VPi2487WXt1f6u3hiSQA7FvtYNLth0iRFc/pa7Se4ULbwnMUR3GPWtTb6pa4WCEx/COS4wANq88ikm4eFWKg9Btt61Iiurpcx26gLwkOx67bkmm42FnoEmt6RFhLidS2DkRAuRjvw0kOuaTK6mNpI1VhxPKnloRzzk1gFnVTk/E+N+iiuT5txh5HIRTsCeFc+1OPtZM1uVHqQ1zRnYrFdLKRz8kMwz74xTo1SyOMceCcZK4rzWCd0Xgt1+JcZdsgD2WruG6njiBu2t4kC5825kEYwf2V5munzV8HJ6b9m3S5tX+zKmexOD+NPZUKzsyqiKzu7EBVRRksT2FefP4g0S0Xjmnllz9jyoWCNvj4S3M1L/TH0+2aCK01KCO5Q+XJeQvDHcRKwDGMPuQNs7YpPKqBaZt0iyGoS6xcny+NNPiceTGNjPj/3Zvf7o6VeRWtvlG4BxLuCBvnlVfo9qsMa4UZOCdt+XU1expgg43rxsuTzZ/o+jx41p4bYjg2XuMbjpUaSQIMqvF6Z3pL+5+jxpGo4p5+JYl9hux9Bmm7WKQqvGSTsTmiOaUHUWZ+nhkjvyIlBSUDjtuO1IKeHw8uQpphg+nOvRwZt/EuzyNTp1D3Q6CikoFdRwi0UUUhi9KF60tcgjJFIDuiiikUgpaSikM6opKWgYUtJRSGLRSUtIYUUUUAeJcWABjl0ApV3cZG2xPtSdc9a6Ub+md6yOssf0m9tHw2y8J4ccZ3+YFZEyyPcTyOzMxkZiWOST6mrqaX4Su3XNUSspupY89Q3yqo8CZYRZIPFnHM/2pzzGYcK7BtvYCuFKkY5YP8AOnolX4idhyHvQMVI85z0/H0rscR2bAVRyzXSgAE8S4A2B500z8ODsevtSAtLb6VO9pa2kKebNIEjHIlz96Q88Dma0Vp4d8P2N9Db3IfV9fkjW5lFwWNvbRMciV0+wq/sjcn8aPCenSRxS6zs5Kvb26SDCldiz8XPc7ewq/0uya1Waa5cTahfy/SL6fo7nZUTPJEGFUenrWcpVwUkS7TSdPilS5lihkmXPA7xqFhTniNeSgf8NZgXLaxql9qJP+XEgtrIHOBbxZxgHuSWPv6Va+JNTNvbHTrdv81eoFkwd4bZtj/E/Iemar7a0aCC2iUkKgAJX7pO5zWGWW2J26bHctzNDZqvCOE7DHv86s0ZFDFiAqglmOMAAZJNVFozqgDEn97AB9sU/cOXiS3yMTH63fH1S8x8zt/OuKMqOzLjcnRHh4ry4ku2UjzMJEG5pApPAvz+0fU+lXMSKAoAxtvUaJAoGByqUGVVJYgAAsx6BQMk1eNVyzPUTviPSGp5EjwO54QOpPpScR+A/wA/aosAa5le4kJ+I4iQ8o4xyAHc82P9qlsuMEdKE32iXFR9r7CRVGGUbHn6GuARXYdMFWxv2qq1K8XTWjM8gEUvF5TkgAlcEqc9RXrabKsi2t8ni6rA8b3RXBZZFLkd6zJ8RWOdriP/AHiuD4gsif8A1MX+6u7y2cO41PEo60wbiJZghYZas2des9v8zH/uqBJq1g10khukyv7xwKqOL5Jk5G682PuKTzY+4rJ/puyPK5iP8VdDV7Y8poj/ABip8pD3SNV5sfel8xO9ZhdUQ8nU+zA04NUUc8/nSeIrczSCRO9dcad/xrM/piId8+xp6O+aXlkVDgUmzQcS9xSgg9arI2c4yd6k4nAyKxbRqouiXRULz5lUkrkjtUR9UZCQVP8AatY4nLoyllUOy4oql/S4/ZNFaemyfBHqcZ5YSMnpSoefvQUxvzowuDj3NcDPTQxccjv3qkB4b9z3jIq3nJ4T3qjmcLchj94EVSEywV8Nzz2qZ5nw9em1VSOeJTnkamI3GnFnGCc/KmCJfmKV+1uAem+TXGR8IyOP4QO3zpkSAY57f1psuOJTgjDKduozSA9e0q4VfDumJboeFrRQS2yqckMdvnile9FtZmRSpm8zybcPuC7b8RHUKMk/96rtGu0l0CyiX9ZFJLbcI54RuLiPuCKqp5HmltIkOWgFx53DuUdpSBnpuAKwa5N4K2kWAhWSZZ5GaSaSUPI8hy7HmSenar6CEnB78vnVHZKzy434UART7bsf+dq09uFVVwQenzrinK3R6yjtiAiijV5HYRxxI0kjk4RI0HEzN6Ac6pbPVoL7N2CFjlYtApOCIAcRg+pG59SajeNtQK2llokLcM2ry5ueE/EtjEcuP4z8PsDWaWaS0PwgkchjoOxrOUOLRphad7j0y1uY5VJyQM43rq7Jk4LZScSfWTEf/aU7L/EfyNYXTfEFwknA0beVHwhuH4viYkKi/vMdlH9ttxZAunmycAmk4WlCnPDgYC5Pb2otv2snJjUH5i6HokKHao+pXk1siR2kH0i+uMi3iLcESKDhpp35hF9Nydh1Ku312llbSzlGlYYWGGPAeaV9kjU9M9T0GT0qFplrd/WXV7IJL244TMyjEcajPDDCp5IvTvuTuadpe1GCju+pLr/o7Y2t2oD3U5lnbdyq8CDrhFHSsn/ipMiaBpkOSJ5dVWSHGxCRQSBzn+JRW+TAHrXj/wDilqEc+rWFgjhv0fZ/XAfdnuG8wqfUAL/OuvTQuaOTVZXJWzz2Oe6UgB3P8Rq0UXYh8xi3LO7GoVoqNKnFjAPWry6ZVtjgDlivptNp1ODlJnzmrzuE4wiuyha9vAxwzbfvGmjNcysMu/P9o0Hck10g+JcAcxXHtt9nfwl0ShaX3CGSR9xnZjXJXVo+Ukv+4mr+3VRDGSV5U6FiY81Ner6GMkmm0eE/Epxk042Zoahq8J/WPt3FSrfxFqMRHEeIA74JBq5e3tnBDKtV8thao4+FSD2rlzaPLiW5StHXg1+LM9rjTN34U1zRNSKw3LRrcjGFmwC3+nNbaa0tUCPDgY5AV5BYafYu6Zj3BGCNiPUEVvdPe5jFvD50jxAYUSEsw9OI715OVvuz1oRXVGmRMcD496njBUdiKioMxewBp+NsoAOYrls3pHIADlSNjUC/seIGRBvvsOtWMoOA3Uc8V0GDxHParhklB2jOeKM1TMgVYEjHWipN2MTyYRgM52GaK9WOtVHlvRO+DzskgfOueIb98Uv2skdOdNsVGPzryz1UMTZwfY1n71SGDdQf5Vfy8vaqe6TiDDG5NWhMiJO2AD0xipsU+Bgcjv8AzqsZHTIIIqZp0FxezeRAMvgsAfSrS3cIhvarJnmqVwNzjBwaTzAQAOak8ueCOtNTW15ZuVmiZcHnj4fka48zPXHXn2ocWuGEZprg3vhXVYHi+hOD9I8wtHvjzOIBcb9dqsLFZpxeXxTy0kuZUhABBYhinFk9O3tWB0WJbnVbCGWR44eNpZ3jJDmKJeMopG+TsPme2R6nbXNreNa29osIt0tRdIFYkYJ4IwcDGMEnn+eTz5rhHdXZ26WpS5OIZIoxt90YHfHf3q6sZ1n4VGC3EPiOxHqSKh/oa0ZAfMnE7c5Fc4JPTy/s4qhv5tWtNJ1RbJSby4ElpGy/ci4ik1winfGMqvqf3a81457kvk9yU8TxSkn0ZzUdYXU/EOpaiMm3j/yll6W8R4FO/wC1u38VcTapEqMSCccsDcntVCLPV4pPrJSr8I+EovCVPIjAwasrfSL+6TPmLJPxfAmMZ9NthXovBHg8eOqaVI5t9QvPpMV3IPq7di0EOCY0cjBcgfextmtxpPiq0bgVnZXO7huSqoyzNnoN6w+oJcaGiRX6RJPIvElsssb3AQ7hpUQnhB6Z39KgCcSQxTzkQJM7KiMfthcHi749TtWc8G/lGuPV7FUuT1K312PVruS6yU063Y2+ncSlWlbA824YHffYL6D121VpcQuvCrqcbHBFeMfpu0toIo4J408tAoC5fi75Cg86ftvHUtkAYrcSuBghiyI46cRznb0Fc/k5E7ijqlmwSx7ZSo9L8U+JLTw3p7z8atf3CumnQHcvJjBlcfsJnJ7nA67eATzz3M0088jyzTSPLLJIcvI7HLMx7mpmsarqOuX9xqN84aaXCoiZEUMS7LFEpJwo/ueZ3r8EV6WGHlx57PEyS3s6QshBB3qWb2Ro/LJyKgEsK4Jb1rdZpQ4TMJYYzdyQ/mugWBBHMVHVmUg9q6MkjHNSp/kpwJpurnAHEQKWO7nQ54ifeoqPJg7V18XaupamfyYPBDpom/S7lznjqVC0jEF2yfWqxOPPKpsHHsT+dRPU5JqmxQwQT4RptMGXQ+ora2I4pIx+zj86wVhO0bIcZAxk4O1bzSpEPCx5tg+tcM2/ydsUauEjgx6YpIHAd1Pfam4myAQeldoqK5fvWXFDd2SyAVNQxeW8L+VI6gnkD1qUJFxgVX6hDZ+U80yr8ALZYbKBvmpLJEiQO3EANwKKzcfi3QeAAT/Z+H7Djl7iinTEefjBJ3pp+R9K768+dcuCdtt61M0MNuu9Rjb8Z5e+am4HQ+9dogzj0zVWBV3Frw+S7IQjHBbG2KWO2k0nWLAxvmKcK6N3VuYrXtZR3uhHKgSQGR0OOYGTVZ9Ba5tNKuCV/wAnMwJ6legrXA3LIkjLPUcbbL6RLWZSsqKwI5MAarZvDujXBzwtG3eM4/DlTbXlwWwBjfGwpx5rtgApH9a+nlgUvuPlo5pR6Yw2h2lkI7O2djPqIklmllbZbG2GDECN8SOQp35A1a2mpzWM2nxx20nlwh4plQJjhkxlg2eHmAap5GkkvLePjf6RHaTCQtkhkaQSgR9gN9vQ11IkyfEWb1wK8+Xh8NVy3VP8HrYvE8ujVKKe5Ls3o13SxBPP5zN9HiMskcat5oXIQtwkbAEgZ9awt3b+IbnVH1W11RbefMYt41VlS3ij2SJOYwOu25JPWn4oYns7kNJma6ltLWGMA8fDx/SJGz0ACjPyp/6LOCcPt03rPD4fhhOSk7HqPFM+WMaVfomLq+oui/p3SNE1GWL9TNAGt3wdyZFHwn5AVVah4wkjRreytINNBHCHsY0+lAdcXEuSPTC1ZWsIVm87hckEDqadXQdGu5He5jGSSAG2xtWOfTYcfR16TUSyL6h5vNPbl3lisw8jOXaW7le4kYnqxc86rppJpXLzMzNsAT0A5ADlivU5fB/ht88E0kZ/clH5NWJ8RaPa6bdJFbzmQMCTxEFhjlnh2rhUl0j1Mqw7bhaZnt6TJp3yzSFD2pnHuQ3lqMmu+A9qOH0opjtDe9Apzh9KQiltCzilyB0peEUFaKY7F4u1KHbuflXPCa0lh4W1iaOOY2shEuODBG2e9NtpWzp02m9Rk2Wl+26KAGY8s8+1TIBcEgYPbfar+Twh4kTBFqmDuMSLypB4U8SEFvJjGCAMyDJY9KndZ6EdJo8cvqTv+Dun3SxQ+S6fGeIA5+FuLq3X/wAVudAmsHtzGQpuFyXGCTwnZSp7Vl7LwbrRAa5lRCdgF+M+u+1a7QvDH0edZZJ5mYKQVBCqcHY7b1Darns9DJj8NULx9/1l5BtgfKpGw3Yge9MasqadayXEYd2GOGNd2cn7orNovivUZFLtHZ25GeFfjmK/vHlmsaTPHzY4qCy4+maaa7hhG7jNczXVrLAyuchlIwBzBqFBpcVuPMmlkkYDJMjZ3xVBqviTSoXltoEaeRfhIUgICe7U9px7jPXiwfS7oQLwxiQhVO+P5CioDytI8kgbyw7E8C5IHzNFXRInwkjbauG59K6wSPWkADD+vagS6AAZ23qRBFJPKkMSkvIcYHQdzTKr9kdchRjn7VrNG082iieRfr3Gw/YTt70m6HRYJax21pBAPs8BRvcjesq8jWwvrEAgx3JZB+4TmtnMpaI45j4qoY9Ohur27ndgSeBRv0A7VrppqGRTl0jLUwc8bjEo3aQblTj3pkyXBO2cAd62X6JtHBTA+VQ7rRoo42ZCAVGd+Ve/DxHFJ0eBPw/LGN0YO/1eW21OMmJZBZARlWyC7FeJuIrg43Ix2z3qtj1CeaSdvpMttGSTHGryyIoP3QzNxYHTJNGsjh1XVF7XLj8qgV5WXLJ5G0z2seKCglR6Xodpd39vp8qG3weOBrieeR7iSR1eUDAxHwsVIB4cg4BJB+G5h09zGzF/i6Yrzaxvru3tYFimdAGVsKxG6uSCK9JsLidFj4lYgxIcn73wg5xWS1OWCaT4CWmxTlbRQapeXumuJCgZUPxDdcj1NZ/UfEN/eleB2gQjBETMCfc1b+K7t7iRoQMBAOLuSd6wr8Stg9DtR5spr3HTCOOEHDbz8lh5s5382X/9jf3rg5Ykkkt3Ykn8ajebN0O1IJpeo/CpoyabJGBSECmfPftR9IP7NMnaxzhGPX+lcFO1J54/ZpPPB6fjQOmLwnfejhpPOXtR5qUBTDgFJwikMpyccvxrjjyc5NFhTHAOEgg7ggitRb+ONbtIoohHbMIwACQwJHrWVDjrSFkJHFy67dKTSfZStHrOh694i1qzmuxb2SIjvFCpeQPcPGAzAYHCB0z3qVoPizTdWuIrVg8UoBJWTGOIHkGG1ZbSNX8O2Hh2+hS9aG4mW5MkKGQXBkdOBDCRy+7khh1rNaVPbwxyu74kO+/P5Vy5GoRcqs9fwzSR1moWKc9q/LPeZlVmTy3HDjkDnn7VLtgtuGkaQbKc8WwA57k14NJrWqsQsGoXaJ0CSsMD3BqZHcaxqKx2xmunDFVdpZZCuOuxOKzW6k1Fnb/jcEJS351S/wBnqTapFquoSLEwktrQAB0PwGTrgjnVqmMDbFZzSLW3sbSCJSBwgcX7zdTTupeI9M02ImSVS+CFRTlie21X/Dy9RkjOXt4iuF/BvxXqn0SxeKNsTT/VJg7jPM15iCBnff8ArT+o62+qXjyysB92KPP2VqI7qu5IroXCOCrdjplIoplWVgSR1ooHRZMc5x7VyAx5dwMe9dKkkjcCgksQAAOdX2n6YsJWWcAuMFVzlV9/Wsmy0jvR9MVQLq4XLkBolYfZHc+taBWX59KZXHCew5UsbAjNZvksmK44TnnjFUEAniurpWfBaQlduQ9KukbfflWa8RSTWN3b3UYYxSr8f7IcVSFZpI+KMBic5Gd6g330u5DLDJwjfi2BGOXM1UQ+KbMwgScQcYGMbbVW3fiF+JmgYqjZzxAAYPQCiMXZL5Mv4gga21jUoWOSJI3z344kfP41V1P1a5+mXZuScs8USv1+KMcH5AVArq/pFUTI2BW3j6twgfxE717Glxay26yQ8PCqBQR1UDhrxWJ/rU3wFxv7CvRrG/t7XSt3GRGTjIzkisMq+BwZl9avla/uFJ2GF/PFVDosmD0PI13fSRzPcS/eaQkHO+DSFWFopzzFax4RL5GfIcfZYU1IJYxk/nQJJB1OKRnZxg8qoVDtnHLdzRwgD4ufoK10HgaeeFZTOYywBC4B596qfCdkbi+ZiB5cYAyxwCee1errD9VEqOuxXO/QVjKbXRooowL/AOH98B8NyvLO6n8aiP4G1YZKSxEDupBz6CvTeKZeJS3Tb513bIyxKGbfJPPPOo81lbUeVN4H19QCFiIPqajt4O8RLygjb+OvYrgyYQR91BxXISTiySMb/jT82QbUeLSeGtfiV3e0+BBliHU7fKqZiFJBBBBII7EV73dOkdpeOyjASQjKjbC9a8HncSXE8uNnlkfb1YmrjLcS40cAr2Ncsd9qdUqelNuRxHFaPohdnQwV579q7QHI2/8ANT7q70yS2gjgj4XUqRhApRQNwT1zUFZo1I+HlV8UTbLO0jYkcuY6Vp9OurW1w0hGw/Ksd+kPLXEY361GlvJ5dixx6Hasnz2aI1ut+Krib/LWEhQciyncdP51UWlvfahLwl2klCMxZtwo61UQgA+vMVufCNq7hnUfWTOUUnoq9vxodRQu5UYm4hns7xo5T8asDkdQauEQOFY9QDUrxhpF1YX1tNK3H9LLsDjGCpGRtUWNmwirzCikurK/JIWJMUU6ltcOoY4GeWdjiikFGot7aGADhHxfeYjep6k4+HcdzUdMOD0qQgUqAp5HFYmhIQnYHcDbblQh+1jkGrkAcPzpBsWHFnODgUgJSkY9ah6/A11pF2ETilhQzxjrxIM9KejJBwRz79qmJwkFW3BUhh6GmnQmrPDHupWYkkjflXD3ErjBJNS9csjp+q39tghBMzxdMxueIVCRV5k1um2ZtUdRK8rxoM/E6Kf4mAq71PQ4LOw+nw3EpH0gwGGRVJzlcEOuO/7NVduyLPbgD7U8IJ/jFavxAODRIlPN76Q9T95e/tTfdAuTEgt0qbDdzqhR3JXBwDUYCusYqqJbGmkbibsTUr6WGhERGMCo0vBtw86m6fpL6grMsyoR04S3896T4Y6TITH1rjiPLNXL+G9TGeBoX9mKn8RUd9C1tBn6I7D9wq1KyqGLPUb+wYvaylGPPYH86tI/F3iKP/6kH3X/AL1Uvp2px547O4H/AMbH8qYMUy/aikHupH51IGhPjLxAcEyr7YOPxqRH451xQARGcVkztz/GijgZs4/HuqBgZIlYDng4qwT/ABFIxx2jct8Ef3rzyippfAWb7UfHiXdlPbRQOryqyEtjkdueawgfFcUVS46Ds6LHO1c86SlosKCgUUUAG9FFFMCRCckV6h4LMatEhx9Wi4/1HrXl9v8AaHvXonhK5hhmZ5DyQcI7786J/aTH7iR4/VprnSiVwiCTB5/ExFZ2OGGEebIVIAGB0+daLxdfRXr20cX2Ym4uPlucbVnRGJAA5JHaoj0U+yrutZnMreSjFBsDgjOPSirtbO1wPgH8qKu0I0wBBbB+zn509DxAkbAHf50yCc9ATnIp2PJO/asDQkg/bBIIxXEZJYY57g0nffmK4JAIOce1AEjO2+c5qVCw32PKq8zYYczTsTsxxkgHpSAyvjvTGl+j6pEuRGnk3BH7OfhPyrB4Fe2XMEN7Y3MEoUpJE6N/LnvXjM0JimniI/VOye+Dit8T4oznwLaDiu7FSDg3VsNue8i1s/F8Tw2NlC4VW81mIUhh+sbqPl/wVktPBN9pij7TXtoBjmSZVx/zP/bXeM+BLawWO0azRTgWrusjQnzJeJSygDnnkP505P3IS6ZiBgUhNJxUlaGZw4yM1ykssRzHI6H9xiPypw8iKZIxUyNETI9U1SL7F1L/ABHi/Op8PifWIRgmKT/Wu/8A/NUdFZlGoTxhdj9ZaQt7Mwp1fFtu362w/wBpU/mKyVFAGw/6i8PSfrdPI7kxxmkOoeDJvt2yqf8A8RH5VkKSgDYhPA8o5xp/E60v6L8Gy/ZuwueWJiPzrG0UDNl/054ek/V35H/yIa5bwnYEZTUf58B/rWPyRyJrrzJBydv9xosRpm8LRjPDfA47oP6GuF8KzSNwpdpyJ+JDyHsazolmHKSQezNXS3V2hBW4mBHIiRh/WiwLDU9Gm03BeZJAcY4VK8/c1VgZNOSXFzN+tmlk6/WOzfnTXtQBMgtY5SOKVVH/ADvV5BpWhR27yTXHFJw7cTDn6AVmMnvSgnbc1ViJRVEaVk+wGIQnqM16h4H0O2vNNk1C6GWlZlgUkjhjUY49upNeUGQkBRyFeu+Arzy9Gihdj8MjBQf2WPFt/OlkfHARXJWa9prWcvEGYxvIQvF6b1Uop2wK1PiuZJDaIuM+ZI+3bAFZpWwKiL4Ka5HVzgZFFN8bdKKYjSqqkk8z604ARy7UypOQN/fpT3xZGD06VmWNyyeWIkJ3kk4Vzy5Vw2csC3y6ZpjVGaOK1kU7x3EbHvg5FNXl3BbiKZ2wsuFyN/iHTFOgLJsBVO2cbmn4FkbBPCi4+3JsMegrPnXEyI7WFppDjDOCQPZRUiL9ISsklzIR2QncegUbUqAs7uUy5tLIszSfC8u4VR1NYzxXpC6dJZzxAmOZOCRunmjf8a2UMnA3Cg3PM9T86Y8R2f6Q0icjeW3xPGP9PMU4umTJWjzCKWSGeCZAOOGRJUzy4kPEKu9d1i01KCxigFwTEqcbXH28gyEhmyck8XOqQDnS8Oa6Kt2Yp1wMkelckU8VxTbdqoQ3kCm3Oa7IrkjNKRaG6K6x6UnCazoqxKKXFFACUUUUDEopaKAEopaKQCUUtGKKGJRRiigBaSiiixC16J4MuVeBkdseTtjI39a87AJOADV1pEV4j8QLIh5jlmh8oPybDWLnz7ohTlYQUBHUk5NVxYV0V+HfnjJrkLxFQOZIFJDOwGYZUHHLYUVfW1okcKLwZPMk45mipsY/HuT7Zp/AC564ooqRkHU1Bspic5BQ/PiFRpba3uYVjmQMgMZA5HOO9FFUI7gihgJWFFQY5qNz7mpCqCc75I3NFFJgSkVRwkc8VYQoro6NurKQQexooqWM8lvo0ivb+NBhEuJVUdgGpgcv50UV1IwfZwetMPRRVIk4o2ooplHOBSUUUihK5ooqWAUbUUUhCYFFFFIYUdqKKBidaX+1FFABgUuBRRQI7VFJAOamwWtu5HECfnRRVUJ9l1aWVoAMRjPfrVgERBhQAMdKKKzZYp5GpelxRyz/ABjPDjFFFSxmrEaAKAOlFFFZlH//2Q==;" vertex="1" parent="1">
          <mxGeometry x="42" y="110" width="1155" height="750.54" as="geometry" />
        </mxCell>
        <mxCell id="_LlhXOMRM4K-xf-TNF9e-9" value="&lt;font style=&quot;font-size: 14px&quot;&gt;&lt;b&gt;Se&amp;nbsp; connecter&lt;/b&gt;&lt;/font&gt;" style="rounded=1;fillColor=#0057D8;align=center;strokeColor=none;html=1;fontColor=#ffffff;fontSize=12;sketch=0;" vertex="1" parent="1">
          <mxGeometry x="415" y="450" width="135" height="33" as="geometry" />
        </mxCell>
        <mxCell id="_LlhXOMRM4K-xf-TNF9e-11" value="&lt;h1&gt;Quick-LOC&lt;/h1&gt;&lt;p&gt;Lorem ipsum dolor sit amet, consectetur adipisicing elit, sed do eiusmod tempor incididunt ut labore et dolore magna aliqua.&lt;/p&gt;" style="text;html=1;strokeColor=none;fillColor=none;spacing=5;spacingTop=-20;whiteSpace=wrap;overflow=hidden;rounded=0;fontSize=14;fontColor=#FFFFFF;" vertex="1" parent="1">
          <mxGeometry x="100" y="330" width="470" height="170" as="geometry" />
        </mxCell>
        <mxCell id="_LlhXOMRM4K-xf-TNF9e-12" value="Some example text that&#39;s free-flowing within the dropdown menu.&lt;br style=&quot;font-size: 14px&quot;&gt;&lt;br style=&quot;font-size: 14px&quot;&gt;And this is more example text." style="html=1;shadow=0;dashed=0;shape=mxgraph.bootstrap.rrect;rSize=5;strokeColor=#999999;strokeWidth=1;fillColor=#FFFFFF;fontColor=#6C767D;whiteSpace=wrap;align=left;verticalAlign=middle;spacingLeft=10;fontSize=14;spacing=10;" vertex="1" parent="1">
          <mxGeometry x="40" y="630" width="1160" height="230" as="geometry" />
        </mxCell>
        <mxCell id="_LlhXOMRM4K-xf-TNF9e-13" value="&lt;font color=&quot;#000000&quot;&gt;Title&lt;/font&gt;" style="text;strokeColor=none;fillColor=none;html=1;fontSize=24;fontStyle=1;verticalAlign=middle;align=center;fontColor=#FFFFFF;" vertex="1" parent="1">
          <mxGeometry x="565" y="647" width="100" height="40" as="geometry" />
        </mxCell>
      </root>
    </mxGraphModel>
  </diagram>
</mxfile>
